<mxfile host="app.diagrams.net" modified="2023-08-31T21:04:51.843Z" agent="Mozilla/5.0 (Windows NT 10.0; Win64; x64) AppleWebKit/537.36 (KHTML, like Gecko) Chrome/116.0.0.0 Safari/537.36" etag="sptKZzcJQl_PN-Rb1hi3" version="21.6.8" type="github" pages="5">
  <diagram id="C5RBs43oDa-KdzZeNtuy" name="SC-SP">
    <mxGraphModel dx="1318" dy="607" grid="1" gridSize="10" guides="1" tooltips="1" connect="1" arrows="1" fold="1" page="1" pageScale="1" pageWidth="827" pageHeight="1169" math="0" shadow="0">
      <root>
        <mxCell id="WIyWlLk6GJQsqaUBKTNV-0" />
        <mxCell id="WIyWlLk6GJQsqaUBKTNV-1" parent="WIyWlLk6GJQsqaUBKTNV-0" />
        <mxCell id="jJFf-ijoVKE5jS3oAcCh-0" value="Core" style="shape=umlFrame;whiteSpace=wrap;html=1;pointerEvents=0;" parent="WIyWlLk6GJQsqaUBKTNV-1" vertex="1">
          <mxGeometry x="164" y="334" width="500" height="290" as="geometry" />
        </mxCell>
        <mxCell id="jJFf-ijoVKE5jS3oAcCh-1" value="ALU" style="html=1;whiteSpace=wrap;" parent="WIyWlLk6GJQsqaUBKTNV-1" vertex="1">
          <mxGeometry x="424" y="384" width="100" height="100" as="geometry" />
        </mxCell>
        <mxCell id="jJFf-ijoVKE5jS3oAcCh-2" value="Decoder" style="html=1;whiteSpace=wrap;" parent="WIyWlLk6GJQsqaUBKTNV-1" vertex="1">
          <mxGeometry x="304" y="384" width="100" height="100" as="geometry" />
        </mxCell>
        <mxCell id="jJFf-ijoVKE5jS3oAcCh-4" value="Memory" style="html=1;whiteSpace=wrap;" parent="WIyWlLk6GJQsqaUBKTNV-1" vertex="1">
          <mxGeometry x="184" y="504" width="460" height="100" as="geometry" />
        </mxCell>
        <mxCell id="jJFf-ijoVKE5jS3oAcCh-5" value="Register" style="html=1;whiteSpace=wrap;" parent="WIyWlLk6GJQsqaUBKTNV-1" vertex="1">
          <mxGeometry x="544" y="384" width="100" height="100" as="geometry" />
        </mxCell>
        <mxCell id="jJFf-ijoVKE5jS3oAcCh-11" style="edgeStyle=orthogonalEdgeStyle;rounded=0;orthogonalLoop=1;jettySize=auto;html=1;exitX=0.5;exitY=0;exitDx=0;exitDy=0;entryX=0.472;entryY=1.003;entryDx=0;entryDy=0;entryPerimeter=0;" parent="WIyWlLk6GJQsqaUBKTNV-1" source="jJFf-ijoVKE5jS3oAcCh-6" target="jJFf-ijoVKE5jS3oAcCh-0" edge="1">
          <mxGeometry relative="1" as="geometry" />
        </mxCell>
        <mxCell id="jJFf-ijoVKE5jS3oAcCh-6" value="Syscall" style="html=1;whiteSpace=wrap;" parent="WIyWlLk6GJQsqaUBKTNV-1" vertex="1">
          <mxGeometry x="510" y="734" width="100" height="100" as="geometry" />
        </mxCell>
        <mxCell id="jJFf-ijoVKE5jS3oAcCh-9" style="edgeStyle=orthogonalEdgeStyle;rounded=0;orthogonalLoop=1;jettySize=auto;html=1;exitX=0.5;exitY=0;exitDx=0;exitDy=0;entryX=0.472;entryY=1.005;entryDx=0;entryDy=0;entryPerimeter=0;" parent="WIyWlLk6GJQsqaUBKTNV-1" source="jJFf-ijoVKE5jS3oAcCh-7" target="jJFf-ijoVKE5jS3oAcCh-0" edge="1">
          <mxGeometry relative="1" as="geometry" />
        </mxCell>
        <mxCell id="jJFf-ijoVKE5jS3oAcCh-7" value="Tracer" style="html=1;whiteSpace=wrap;" parent="WIyWlLk6GJQsqaUBKTNV-1" vertex="1">
          <mxGeometry x="204" y="734" width="100" height="100" as="geometry" />
        </mxCell>
        <mxCell id="jJFf-ijoVKE5jS3oAcCh-8" value="Fetch Unit" style="html=1;whiteSpace=wrap;" parent="WIyWlLk6GJQsqaUBKTNV-1" vertex="1">
          <mxGeometry x="184" y="384" width="100" height="100" as="geometry" />
        </mxCell>
      </root>
    </mxGraphModel>
  </diagram>
  <diagram id="JohSVY40dBYb_aQey5no" name="SC-MP">
    <mxGraphModel dx="4027" dy="1474" grid="1" gridSize="10" guides="1" tooltips="1" connect="1" arrows="1" fold="1" page="1" pageScale="1" pageWidth="827" pageHeight="1169" math="0" shadow="0">
      <root>
        <mxCell id="0" />
        <mxCell id="1" parent="0" />
        <mxCell id="Cgh-DoVsadlqt4u21xrh-1" value="State" style="html=1;whiteSpace=wrap;" vertex="1" parent="1">
          <mxGeometry x="-650" y="338" width="130" height="65" as="geometry" />
        </mxCell>
        <mxCell id="Cgh-DoVsadlqt4u21xrh-2" value="Register File" style="html=1;whiteSpace=wrap;" vertex="1" parent="1">
          <mxGeometry x="400" y="486" width="110" height="110" as="geometry" />
        </mxCell>
        <mxCell id="Cgh-DoVsadlqt4u21xrh-3" value="ALU" style="html=1;whiteSpace=wrap;" vertex="1" parent="1">
          <mxGeometry x="560" y="486" width="110" height="110" as="geometry" />
        </mxCell>
        <mxCell id="Cgh-DoVsadlqt4u21xrh-4" value="Decoder" style="html=1;whiteSpace=wrap;" vertex="1" parent="1">
          <mxGeometry x="560" y="346" width="110" height="110" as="geometry" />
        </mxCell>
        <mxCell id="Cgh-DoVsadlqt4u21xrh-6" value="State" style="html=1;whiteSpace=wrap;" vertex="1" parent="1">
          <mxGeometry x="-477" y="338" width="130" height="65" as="geometry" />
        </mxCell>
        <mxCell id="Cgh-DoVsadlqt4u21xrh-7" value="State" style="html=1;whiteSpace=wrap;" vertex="1" parent="1">
          <mxGeometry x="-310" y="338" width="130" height="65" as="geometry" />
        </mxCell>
        <mxCell id="Cgh-DoVsadlqt4u21xrh-8" value="CPU States" style="shape=umlFrame;whiteSpace=wrap;html=1;pointerEvents=0;width=90;height=30;" vertex="1" parent="1">
          <mxGeometry x="-680" y="288" width="720" height="140" as="geometry" />
        </mxCell>
        <mxCell id="Cgh-DoVsadlqt4u21xrh-9" value="State" style="html=1;whiteSpace=wrap;" vertex="1" parent="1">
          <mxGeometry x="-140" y="338" width="130" height="65" as="geometry" />
        </mxCell>
        <mxCell id="Cgh-DoVsadlqt4u21xrh-10" value="Processes" style="shape=umlFrame;whiteSpace=wrap;html=1;pointerEvents=0;width=90;height=30;" vertex="1" parent="1">
          <mxGeometry x="-680" y="448" width="720" height="280" as="geometry" />
        </mxCell>
        <mxCell id="Cgh-DoVsadlqt4u21xrh-11" style="edgeStyle=orthogonalEdgeStyle;rounded=0;orthogonalLoop=1;jettySize=auto;html=1;exitX=0.5;exitY=0;exitDx=0;exitDy=0;entryX=0.5;entryY=1;entryDx=0;entryDy=0;dashed=1;" edge="1" parent="1" source="Cgh-DoVsadlqt4u21xrh-12" target="Cgh-DoVsadlqt4u21xrh-1">
          <mxGeometry relative="1" as="geometry" />
        </mxCell>
        <mxCell id="Cgh-DoVsadlqt4u21xrh-12" value="Process" style="html=1;whiteSpace=wrap;" vertex="1" parent="1">
          <mxGeometry x="-650" y="500.5" width="130" height="67.5" as="geometry" />
        </mxCell>
        <mxCell id="Cgh-DoVsadlqt4u21xrh-13" style="edgeStyle=orthogonalEdgeStyle;rounded=0;orthogonalLoop=1;jettySize=auto;html=1;exitX=0.5;exitY=0;exitDx=0;exitDy=0;entryX=0.5;entryY=1;entryDx=0;entryDy=0;dashed=1;" edge="1" parent="1" source="Cgh-DoVsadlqt4u21xrh-14" target="Cgh-DoVsadlqt4u21xrh-6">
          <mxGeometry relative="1" as="geometry" />
        </mxCell>
        <mxCell id="Cgh-DoVsadlqt4u21xrh-14" value="Process" style="html=1;whiteSpace=wrap;" vertex="1" parent="1">
          <mxGeometry x="-477" y="500.5" width="130" height="65" as="geometry" />
        </mxCell>
        <mxCell id="Cgh-DoVsadlqt4u21xrh-15" style="edgeStyle=orthogonalEdgeStyle;rounded=0;orthogonalLoop=1;jettySize=auto;html=1;exitX=0.5;exitY=0;exitDx=0;exitDy=0;entryX=0.5;entryY=1;entryDx=0;entryDy=0;dashed=1;" edge="1" parent="1" source="Cgh-DoVsadlqt4u21xrh-16" target="Cgh-DoVsadlqt4u21xrh-7">
          <mxGeometry relative="1" as="geometry" />
        </mxCell>
        <mxCell id="Cgh-DoVsadlqt4u21xrh-16" value="Process" style="html=1;whiteSpace=wrap;" vertex="1" parent="1">
          <mxGeometry x="-310" y="500.5" width="130" height="65" as="geometry" />
        </mxCell>
        <mxCell id="Cgh-DoVsadlqt4u21xrh-17" style="edgeStyle=orthogonalEdgeStyle;rounded=0;orthogonalLoop=1;jettySize=auto;html=1;exitX=0.5;exitY=0;exitDx=0;exitDy=0;entryX=0.5;entryY=1;entryDx=0;entryDy=0;dashed=1;" edge="1" parent="1" source="Cgh-DoVsadlqt4u21xrh-18" target="Cgh-DoVsadlqt4u21xrh-9">
          <mxGeometry relative="1" as="geometry" />
        </mxCell>
        <mxCell id="Cgh-DoVsadlqt4u21xrh-18" value="Process" style="html=1;whiteSpace=wrap;" vertex="1" parent="1">
          <mxGeometry x="-140" y="500.5" width="130" height="65" as="geometry" />
        </mxCell>
        <mxCell id="Cgh-DoVsadlqt4u21xrh-19" value="Core" style="shape=umlFrame;whiteSpace=wrap;html=1;pointerEvents=0;" vertex="1" parent="1">
          <mxGeometry x="350" y="306" width="370" height="400" as="geometry" />
        </mxCell>
        <mxCell id="Cgh-DoVsadlqt4u21xrh-20" value="Fetch Unit" style="html=1;whiteSpace=wrap;" vertex="1" parent="1">
          <mxGeometry x="400" y="346" width="110" height="110" as="geometry" />
        </mxCell>
        <mxCell id="raejYUZMowQgH1t5W9rL-7" value="" style="edgeStyle=orthogonalEdgeStyle;rounded=0;orthogonalLoop=1;jettySize=auto;html=1;exitX=1;exitY=0.303;exitDx=0;exitDy=0;exitPerimeter=0;entryX=-0.003;entryY=0.345;entryDx=0;entryDy=0;entryPerimeter=0;" edge="1" parent="1" source="Cgh-DoVsadlqt4u21xrh-23" target="Cgh-DoVsadlqt4u21xrh-19">
          <mxGeometry relative="1" as="geometry">
            <mxPoint x="560" y="584.5" as="targetPoint" />
          </mxGeometry>
        </mxCell>
        <mxCell id="Cgh-DoVsadlqt4u21xrh-23" value="Kernel" style="shape=umlFrame;whiteSpace=wrap;html=1;pointerEvents=0;" vertex="1" parent="1">
          <mxGeometry x="-740" y="228" width="840" height="713" as="geometry" />
        </mxCell>
        <mxCell id="MsrtV-jmUlhMRd1GNKr2-9" value="" style="edgeStyle=orthogonalEdgeStyle;rounded=0;orthogonalLoop=1;jettySize=auto;html=1;entryX=0.501;entryY=1;entryDx=0;entryDy=0;entryPerimeter=0;" edge="1" parent="1" source="Cgh-DoVsadlqt4u21xrh-24" target="Cgh-DoVsadlqt4u21xrh-19">
          <mxGeometry relative="1" as="geometry" />
        </mxCell>
        <mxCell id="raejYUZMowQgH1t5W9rL-9" value="" style="edgeStyle=orthogonalEdgeStyle;rounded=0;orthogonalLoop=1;jettySize=auto;html=1;entryX=0.999;entryY=0.893;entryDx=0;entryDy=0;entryPerimeter=0;" edge="1" parent="1" source="Cgh-DoVsadlqt4u21xrh-24" target="Cgh-DoVsadlqt4u21xrh-23">
          <mxGeometry relative="1" as="geometry">
            <mxPoint x="245" y="866" as="targetPoint" />
          </mxGeometry>
        </mxCell>
        <mxCell id="Cgh-DoVsadlqt4u21xrh-24" value="Syscalls" style="shape=umlFrame;whiteSpace=wrap;html=1;pointerEvents=0;" vertex="1" parent="1">
          <mxGeometry x="350" y="791" width="130" height="150" as="geometry" />
        </mxCell>
        <mxCell id="Cgh-DoVsadlqt4u21xrh-25" value="Yield" style="html=1;whiteSpace=wrap;" vertex="1" parent="1">
          <mxGeometry x="370" y="831" width="90" height="90" as="geometry" />
        </mxCell>
        <mxCell id="Cgh-DoVsadlqt4u21xrh-26" value="Memory" style="html=1;whiteSpace=wrap;" vertex="1" parent="1">
          <mxGeometry x="-650" y="568" width="130" height="127.5" as="geometry" />
        </mxCell>
        <mxCell id="Cgh-DoVsadlqt4u21xrh-27" value="Memory" style="html=1;whiteSpace=wrap;" vertex="1" parent="1">
          <mxGeometry x="-477" y="565.5" width="130" height="127.5" as="geometry" />
        </mxCell>
        <mxCell id="Cgh-DoVsadlqt4u21xrh-28" value="Memory" style="html=1;whiteSpace=wrap;" vertex="1" parent="1">
          <mxGeometry x="-310" y="565.5" width="130" height="127.5" as="geometry" />
        </mxCell>
        <mxCell id="Cgh-DoVsadlqt4u21xrh-29" value="Memory" style="html=1;whiteSpace=wrap;" vertex="1" parent="1">
          <mxGeometry x="-140" y="565.5" width="130" height="127.5" as="geometry" />
        </mxCell>
        <mxCell id="e0fdxu0Z3Wt15DGcbfik-8" value="Current Process" style="html=1;whiteSpace=wrap;" vertex="1" parent="1">
          <mxGeometry x="400" y="626" width="270" height="50" as="geometry" />
        </mxCell>
        <mxCell id="MsrtV-jmUlhMRd1GNKr2-10" style="edgeStyle=orthogonalEdgeStyle;rounded=0;orthogonalLoop=1;jettySize=auto;html=1;exitX=0.5;exitY=0;exitDx=0;exitDy=0;entryX=0.501;entryY=0.999;entryDx=0;entryDy=0;entryPerimeter=0;" edge="1" parent="1" source="MsrtV-jmUlhMRd1GNKr2-4" target="Cgh-DoVsadlqt4u21xrh-19">
          <mxGeometry relative="1" as="geometry">
            <Array as="points">
              <mxPoint x="690" y="746" />
              <mxPoint x="535" y="746" />
            </Array>
          </mxGeometry>
        </mxCell>
        <mxCell id="MsrtV-jmUlhMRd1GNKr2-4" value="Tracer" style="html=1;whiteSpace=wrap;" vertex="1" parent="1">
          <mxGeometry x="640" y="816" width="100" height="100" as="geometry" />
        </mxCell>
        <mxCell id="raejYUZMowQgH1t5W9rL-3" value="Sehcduler" style="html=1;whiteSpace=wrap;" vertex="1" parent="1">
          <mxGeometry x="-680" y="761" width="200" height="150" as="geometry" />
        </mxCell>
        <mxCell id="raejYUZMowQgH1t5W9rL-4" value="State Saver" style="html=1;whiteSpace=wrap;" vertex="1" parent="1">
          <mxGeometry x="-420" y="761" width="200" height="150" as="geometry" />
        </mxCell>
        <mxCell id="raejYUZMowQgH1t5W9rL-5" value="State Loader" style="html=1;whiteSpace=wrap;" vertex="1" parent="1">
          <mxGeometry x="-160" y="761" width="200" height="150" as="geometry" />
        </mxCell>
      </root>
    </mxGraphModel>
  </diagram>
  <diagram id="OSlTnp1Fj-KpdQ1Isk8S" name="MC-MP">
    <mxGraphModel dx="3627" dy="1290" grid="1" gridSize="10" guides="1" tooltips="1" connect="1" arrows="1" fold="1" page="1" pageScale="1" pageWidth="827" pageHeight="1169" math="0" shadow="0">
      <root>
        <mxCell id="0" />
        <mxCell id="1" parent="0" />
        <mxCell id="BfR6Zu-yq-YvX_CjWNUr-1" value="State" style="html=1;whiteSpace=wrap;" vertex="1" parent="1">
          <mxGeometry x="-441" y="270" width="130" height="65" as="geometry" />
        </mxCell>
        <mxCell id="BfR6Zu-yq-YvX_CjWNUr-2" value="Register File" style="html=1;whiteSpace=wrap;" vertex="1" parent="1">
          <mxGeometry x="979" y="396" width="110" height="110" as="geometry" />
        </mxCell>
        <mxCell id="BfR6Zu-yq-YvX_CjWNUr-3" value="ALU" style="html=1;whiteSpace=wrap;" vertex="1" parent="1">
          <mxGeometry x="1139" y="396" width="110" height="110" as="geometry" />
        </mxCell>
        <mxCell id="BfR6Zu-yq-YvX_CjWNUr-4" value="Decoder" style="html=1;whiteSpace=wrap;" vertex="1" parent="1">
          <mxGeometry x="1139" y="256" width="110" height="110" as="geometry" />
        </mxCell>
        <mxCell id="BfR6Zu-yq-YvX_CjWNUr-5" value="State" style="html=1;whiteSpace=wrap;" vertex="1" parent="1">
          <mxGeometry x="-268" y="270" width="130" height="65" as="geometry" />
        </mxCell>
        <mxCell id="BfR6Zu-yq-YvX_CjWNUr-6" value="State" style="html=1;whiteSpace=wrap;" vertex="1" parent="1">
          <mxGeometry x="-101" y="270" width="130" height="65" as="geometry" />
        </mxCell>
        <mxCell id="BfR6Zu-yq-YvX_CjWNUr-7" value="CPU States" style="shape=umlFrame;whiteSpace=wrap;html=1;pointerEvents=0;width=90;height=30;" vertex="1" parent="1">
          <mxGeometry x="-471" y="220" width="720" height="140" as="geometry" />
        </mxCell>
        <mxCell id="BfR6Zu-yq-YvX_CjWNUr-8" value="State" style="html=1;whiteSpace=wrap;" vertex="1" parent="1">
          <mxGeometry x="69" y="270" width="130" height="65" as="geometry" />
        </mxCell>
        <mxCell id="BfR6Zu-yq-YvX_CjWNUr-9" value="Processes" style="shape=umlFrame;whiteSpace=wrap;html=1;pointerEvents=0;width=90;height=30;" vertex="1" parent="1">
          <mxGeometry x="-471" y="380" width="720" height="280" as="geometry" />
        </mxCell>
        <mxCell id="BfR6Zu-yq-YvX_CjWNUr-10" style="edgeStyle=orthogonalEdgeStyle;rounded=0;orthogonalLoop=1;jettySize=auto;html=1;exitX=0.5;exitY=0;exitDx=0;exitDy=0;entryX=0.5;entryY=1;entryDx=0;entryDy=0;dashed=1;" edge="1" parent="1" source="BfR6Zu-yq-YvX_CjWNUr-11" target="BfR6Zu-yq-YvX_CjWNUr-1">
          <mxGeometry relative="1" as="geometry" />
        </mxCell>
        <mxCell id="BfR6Zu-yq-YvX_CjWNUr-11" value="Process" style="html=1;whiteSpace=wrap;" vertex="1" parent="1">
          <mxGeometry x="-441" y="432.5" width="130" height="67.5" as="geometry" />
        </mxCell>
        <mxCell id="BfR6Zu-yq-YvX_CjWNUr-12" style="edgeStyle=orthogonalEdgeStyle;rounded=0;orthogonalLoop=1;jettySize=auto;html=1;exitX=0.5;exitY=0;exitDx=0;exitDy=0;entryX=0.5;entryY=1;entryDx=0;entryDy=0;dashed=1;" edge="1" parent="1" source="BfR6Zu-yq-YvX_CjWNUr-13" target="BfR6Zu-yq-YvX_CjWNUr-5">
          <mxGeometry relative="1" as="geometry" />
        </mxCell>
        <mxCell id="BfR6Zu-yq-YvX_CjWNUr-13" value="Process" style="html=1;whiteSpace=wrap;" vertex="1" parent="1">
          <mxGeometry x="-268" y="432.5" width="130" height="65" as="geometry" />
        </mxCell>
        <mxCell id="BfR6Zu-yq-YvX_CjWNUr-14" style="edgeStyle=orthogonalEdgeStyle;rounded=0;orthogonalLoop=1;jettySize=auto;html=1;exitX=0.5;exitY=0;exitDx=0;exitDy=0;entryX=0.5;entryY=1;entryDx=0;entryDy=0;dashed=1;" edge="1" parent="1" source="BfR6Zu-yq-YvX_CjWNUr-15" target="BfR6Zu-yq-YvX_CjWNUr-6">
          <mxGeometry relative="1" as="geometry" />
        </mxCell>
        <mxCell id="BfR6Zu-yq-YvX_CjWNUr-15" value="Process" style="html=1;whiteSpace=wrap;" vertex="1" parent="1">
          <mxGeometry x="-101" y="432.5" width="130" height="65" as="geometry" />
        </mxCell>
        <mxCell id="BfR6Zu-yq-YvX_CjWNUr-16" style="edgeStyle=orthogonalEdgeStyle;rounded=0;orthogonalLoop=1;jettySize=auto;html=1;exitX=0.5;exitY=0;exitDx=0;exitDy=0;entryX=0.5;entryY=1;entryDx=0;entryDy=0;dashed=1;" edge="1" parent="1" source="BfR6Zu-yq-YvX_CjWNUr-17" target="BfR6Zu-yq-YvX_CjWNUr-8">
          <mxGeometry relative="1" as="geometry" />
        </mxCell>
        <mxCell id="BfR6Zu-yq-YvX_CjWNUr-17" value="Process" style="html=1;whiteSpace=wrap;" vertex="1" parent="1">
          <mxGeometry x="69" y="432.5" width="130" height="65" as="geometry" />
        </mxCell>
        <mxCell id="BfR6Zu-yq-YvX_CjWNUr-18" value="Core" style="shape=umlFrame;whiteSpace=wrap;html=1;pointerEvents=0;" vertex="1" parent="1">
          <mxGeometry x="929" y="216" width="370" height="400" as="geometry" />
        </mxCell>
        <mxCell id="BfR6Zu-yq-YvX_CjWNUr-19" value="Fetch Unit" style="html=1;whiteSpace=wrap;" vertex="1" parent="1">
          <mxGeometry x="979" y="256" width="110" height="110" as="geometry" />
        </mxCell>
        <mxCell id="rOfFbKU00IpNW2LFzWHO-2" value="" style="edgeStyle=orthogonalEdgeStyle;rounded=0;orthogonalLoop=1;jettySize=auto;html=1;exitX=1;exitY=0.283;exitDx=0;exitDy=0;exitPerimeter=0;entryX=-0.001;entryY=0.391;entryDx=0;entryDy=0;entryPerimeter=0;" edge="1" parent="1" source="BfR6Zu-yq-YvX_CjWNUr-21" target="BfR6Zu-yq-YvX_CjWNUr-36">
          <mxGeometry relative="1" as="geometry">
            <mxPoint x="769" y="516.5" as="targetPoint" />
          </mxGeometry>
        </mxCell>
        <mxCell id="BfR6Zu-yq-YvX_CjWNUr-21" value="Kernel" style="shape=umlFrame;whiteSpace=wrap;html=1;pointerEvents=0;" vertex="1" parent="1">
          <mxGeometry x="-531" y="160" width="840" height="713" as="geometry" />
        </mxCell>
        <mxCell id="BfR6Zu-yq-YvX_CjWNUr-56" value="" style="edgeStyle=orthogonalEdgeStyle;rounded=0;orthogonalLoop=1;jettySize=auto;html=1;entryX=0.719;entryY=1.01;entryDx=0;entryDy=0;entryPerimeter=0;" edge="1" parent="1" source="BfR6Zu-yq-YvX_CjWNUr-24" target="BfR6Zu-yq-YvX_CjWNUr-46">
          <mxGeometry relative="1" as="geometry">
            <mxPoint x="734" y="792" as="targetPoint" />
            <Array as="points">
              <mxPoint x="904" y="686" />
              <mxPoint x="775" y="686" />
            </Array>
          </mxGeometry>
        </mxCell>
        <mxCell id="BfR6Zu-yq-YvX_CjWNUr-59" value="" style="edgeStyle=orthogonalEdgeStyle;rounded=0;orthogonalLoop=1;jettySize=auto;html=1;entryX=0.486;entryY=1.001;entryDx=0;entryDy=0;entryPerimeter=0;" edge="1" parent="1" source="BfR6Zu-yq-YvX_CjWNUr-24" target="BfR6Zu-yq-YvX_CjWNUr-21">
          <mxGeometry relative="1" as="geometry">
            <mxPoint x="904" y="992" as="targetPoint" />
            <Array as="points">
              <mxPoint x="904" y="960" />
              <mxPoint x="-123" y="960" />
            </Array>
          </mxGeometry>
        </mxCell>
        <mxCell id="BfR6Zu-yq-YvX_CjWNUr-24" value="Syscalls" style="shape=umlFrame;whiteSpace=wrap;html=1;pointerEvents=0;" vertex="1" parent="1">
          <mxGeometry x="839" y="717" width="130" height="150" as="geometry" />
        </mxCell>
        <mxCell id="BfR6Zu-yq-YvX_CjWNUr-25" value="Yield" style="html=1;whiteSpace=wrap;" vertex="1" parent="1">
          <mxGeometry x="859" y="757.0000000000001" width="90" height="90" as="geometry" />
        </mxCell>
        <mxCell id="BfR6Zu-yq-YvX_CjWNUr-26" value="Memory" style="html=1;whiteSpace=wrap;" vertex="1" parent="1">
          <mxGeometry x="-441" y="500" width="130" height="127.5" as="geometry" />
        </mxCell>
        <mxCell id="BfR6Zu-yq-YvX_CjWNUr-27" value="Memory" style="html=1;whiteSpace=wrap;" vertex="1" parent="1">
          <mxGeometry x="-268" y="497.5" width="130" height="127.5" as="geometry" />
        </mxCell>
        <mxCell id="BfR6Zu-yq-YvX_CjWNUr-28" value="Memory" style="html=1;whiteSpace=wrap;" vertex="1" parent="1">
          <mxGeometry x="-101" y="497.5" width="130" height="127.5" as="geometry" />
        </mxCell>
        <mxCell id="BfR6Zu-yq-YvX_CjWNUr-29" value="Memory" style="html=1;whiteSpace=wrap;" vertex="1" parent="1">
          <mxGeometry x="69" y="497.5" width="130" height="127.5" as="geometry" />
        </mxCell>
        <mxCell id="BfR6Zu-yq-YvX_CjWNUr-30" value="Current Process" style="html=1;whiteSpace=wrap;" vertex="1" parent="1">
          <mxGeometry x="979" y="536" width="270" height="50" as="geometry" />
        </mxCell>
        <mxCell id="BfR6Zu-yq-YvX_CjWNUr-54" style="edgeStyle=orthogonalEdgeStyle;rounded=0;orthogonalLoop=1;jettySize=auto;html=1;exitX=0.5;exitY=0;exitDx=0;exitDy=0;entryX=0.728;entryY=0.999;entryDx=0;entryDy=0;entryPerimeter=0;" edge="1" parent="1" source="BfR6Zu-yq-YvX_CjWNUr-32" target="BfR6Zu-yq-YvX_CjWNUr-18">
          <mxGeometry relative="1" as="geometry" />
        </mxCell>
        <mxCell id="BfR6Zu-yq-YvX_CjWNUr-32" value="Tracer" style="html=1;whiteSpace=wrap;" vertex="1" parent="1">
          <mxGeometry x="1149" y="714.0000000000001" width="100" height="100" as="geometry" />
        </mxCell>
        <mxCell id="BfR6Zu-yq-YvX_CjWNUr-33" value="Sehcduler" style="html=1;whiteSpace=wrap;" vertex="1" parent="1">
          <mxGeometry x="-471" y="693" width="200" height="150" as="geometry" />
        </mxCell>
        <mxCell id="BfR6Zu-yq-YvX_CjWNUr-34" value="State Saver" style="html=1;whiteSpace=wrap;" vertex="1" parent="1">
          <mxGeometry x="-211" y="693" width="200" height="150" as="geometry" />
        </mxCell>
        <mxCell id="BfR6Zu-yq-YvX_CjWNUr-35" value="State Loader" style="html=1;whiteSpace=wrap;" vertex="1" parent="1">
          <mxGeometry x="49" y="693" width="200" height="150" as="geometry" />
        </mxCell>
        <mxCell id="BfR6Zu-yq-YvX_CjWNUr-36" value="Core Cluster" style="shape=umlFrame;whiteSpace=wrap;html=1;pointerEvents=0;width=80;height=30;" vertex="1" parent="1">
          <mxGeometry x="449" y="166" width="910" height="500" as="geometry" />
        </mxCell>
        <mxCell id="BfR6Zu-yq-YvX_CjWNUr-43" value="Register File" style="html=1;whiteSpace=wrap;" vertex="1" parent="1">
          <mxGeometry x="559" y="396" width="110" height="110" as="geometry" />
        </mxCell>
        <mxCell id="BfR6Zu-yq-YvX_CjWNUr-44" value="ALU" style="html=1;whiteSpace=wrap;" vertex="1" parent="1">
          <mxGeometry x="719" y="396" width="110" height="110" as="geometry" />
        </mxCell>
        <mxCell id="BfR6Zu-yq-YvX_CjWNUr-45" value="Decoder" style="html=1;whiteSpace=wrap;" vertex="1" parent="1">
          <mxGeometry x="719" y="256" width="110" height="110" as="geometry" />
        </mxCell>
        <mxCell id="BfR6Zu-yq-YvX_CjWNUr-46" value="Core" style="shape=umlFrame;whiteSpace=wrap;html=1;pointerEvents=0;" vertex="1" parent="1">
          <mxGeometry x="509" y="216" width="370" height="400" as="geometry" />
        </mxCell>
        <mxCell id="BfR6Zu-yq-YvX_CjWNUr-47" value="Fetch Unit" style="html=1;whiteSpace=wrap;" vertex="1" parent="1">
          <mxGeometry x="559" y="256" width="110" height="110" as="geometry" />
        </mxCell>
        <mxCell id="BfR6Zu-yq-YvX_CjWNUr-48" value="Current Process" style="html=1;whiteSpace=wrap;" vertex="1" parent="1">
          <mxGeometry x="559" y="536" width="270" height="50" as="geometry" />
        </mxCell>
        <mxCell id="BfR6Zu-yq-YvX_CjWNUr-53" value="" style="edgeStyle=orthogonalEdgeStyle;rounded=0;orthogonalLoop=1;jettySize=auto;html=1;" edge="1" parent="1" source="BfR6Zu-yq-YvX_CjWNUr-52">
          <mxGeometry relative="1" as="geometry">
            <mxPoint x="629" y="616" as="targetPoint" />
          </mxGeometry>
        </mxCell>
        <mxCell id="BfR6Zu-yq-YvX_CjWNUr-52" value="Tracer" style="html=1;whiteSpace=wrap;" vertex="1" parent="1">
          <mxGeometry x="579" y="717.0000000000001" width="100" height="100" as="geometry" />
        </mxCell>
        <mxCell id="BfR6Zu-yq-YvX_CjWNUr-57" value="" style="edgeStyle=orthogonalEdgeStyle;rounded=0;orthogonalLoop=1;jettySize=auto;html=1;entryX=0.297;entryY=1.008;entryDx=0;entryDy=0;entryPerimeter=0;" edge="1" parent="1" target="BfR6Zu-yq-YvX_CjWNUr-18">
          <mxGeometry relative="1" as="geometry">
            <mxPoint x="905" y="717" as="sourcePoint" />
            <mxPoint x="1029" y="736" as="targetPoint" />
            <Array as="points">
              <mxPoint x="905" y="686" />
              <mxPoint x="1039" y="686" />
            </Array>
          </mxGeometry>
        </mxCell>
      </root>
    </mxGraphModel>
  </diagram>
  <diagram id="j_4fAusi4m91o3osS9CG" name="MC-MP-Mem">
    <mxGraphModel dx="4454" dy="1290" grid="1" gridSize="10" guides="1" tooltips="1" connect="1" arrows="1" fold="1" page="1" pageScale="1" pageWidth="827" pageHeight="1169" math="0" shadow="0">
      <root>
        <mxCell id="0" />
        <mxCell id="1" parent="0" />
        <mxCell id="nUtpPfne2L3b6XSr7Jf7-1" value="State" style="html=1;whiteSpace=wrap;" vertex="1" parent="1">
          <mxGeometry x="-471" y="290" width="130" height="65" as="geometry" />
        </mxCell>
        <mxCell id="nUtpPfne2L3b6XSr7Jf7-2" value="Register File" style="html=1;whiteSpace=wrap;" vertex="1" parent="1">
          <mxGeometry x="949" y="416" width="110" height="110" as="geometry" />
        </mxCell>
        <mxCell id="nUtpPfne2L3b6XSr7Jf7-3" value="ALU" style="html=1;whiteSpace=wrap;" vertex="1" parent="1">
          <mxGeometry x="1109" y="416" width="110" height="110" as="geometry" />
        </mxCell>
        <mxCell id="nUtpPfne2L3b6XSr7Jf7-4" value="Decoder" style="html=1;whiteSpace=wrap;" vertex="1" parent="1">
          <mxGeometry x="1109" y="276" width="110" height="110" as="geometry" />
        </mxCell>
        <mxCell id="nUtpPfne2L3b6XSr7Jf7-5" value="State" style="html=1;whiteSpace=wrap;" vertex="1" parent="1">
          <mxGeometry x="-298" y="290" width="130" height="65" as="geometry" />
        </mxCell>
        <mxCell id="nUtpPfne2L3b6XSr7Jf7-6" value="State" style="html=1;whiteSpace=wrap;" vertex="1" parent="1">
          <mxGeometry x="-131" y="290" width="130" height="65" as="geometry" />
        </mxCell>
        <mxCell id="nUtpPfne2L3b6XSr7Jf7-7" value="CPU States" style="shape=umlFrame;whiteSpace=wrap;html=1;pointerEvents=0;width=90;height=30;" vertex="1" parent="1">
          <mxGeometry x="-501" y="240" width="720" height="140" as="geometry" />
        </mxCell>
        <mxCell id="nUtpPfne2L3b6XSr7Jf7-8" value="State" style="html=1;whiteSpace=wrap;" vertex="1" parent="1">
          <mxGeometry x="39" y="290" width="130" height="65" as="geometry" />
        </mxCell>
        <mxCell id="nUtpPfne2L3b6XSr7Jf7-9" value="Processes" style="shape=umlFrame;whiteSpace=wrap;html=1;pointerEvents=0;width=90;height=30;" vertex="1" parent="1">
          <mxGeometry x="-501" y="506" width="720" height="150" as="geometry" />
        </mxCell>
        <mxCell id="nUtpPfne2L3b6XSr7Jf7-10" style="edgeStyle=orthogonalEdgeStyle;rounded=0;orthogonalLoop=1;jettySize=auto;html=1;exitX=0.5;exitY=0;exitDx=0;exitDy=0;entryX=0.5;entryY=1;entryDx=0;entryDy=0;dashed=1;" edge="1" parent="1" source="nUtpPfne2L3b6XSr7Jf7-11" target="nUtpPfne2L3b6XSr7Jf7-1">
          <mxGeometry relative="1" as="geometry" />
        </mxCell>
        <mxCell id="NCpo27Vf3hIJw7Kv_T0o-40" style="edgeStyle=orthogonalEdgeStyle;rounded=0;orthogonalLoop=1;jettySize=auto;html=1;exitX=0.5;exitY=0;exitDx=0;exitDy=0;entryX=0.5;entryY=0;entryDx=0;entryDy=0;" edge="1" parent="1" source="nUtpPfne2L3b6XSr7Jf7-11" target="NCpo27Vf3hIJw7Kv_T0o-5">
          <mxGeometry relative="1" as="geometry">
            <Array as="points">
              <mxPoint x="-406" y="460" />
              <mxPoint x="-650" y="460" />
              <mxPoint x="-650" y="210" />
              <mxPoint x="-830" y="210" />
            </Array>
          </mxGeometry>
        </mxCell>
        <mxCell id="NCpo27Vf3hIJw7Kv_T0o-41" style="edgeStyle=orthogonalEdgeStyle;rounded=0;orthogonalLoop=1;jettySize=auto;html=1;exitX=0.5;exitY=0;exitDx=0;exitDy=0;entryX=0.5;entryY=0;entryDx=0;entryDy=0;" edge="1" parent="1" source="nUtpPfne2L3b6XSr7Jf7-11" target="NCpo27Vf3hIJw7Kv_T0o-4">
          <mxGeometry relative="1" as="geometry">
            <Array as="points">
              <mxPoint x="-406" y="460" />
              <mxPoint x="-650" y="460" />
              <mxPoint x="-650" y="210" />
              <mxPoint x="-995" y="210" />
            </Array>
          </mxGeometry>
        </mxCell>
        <mxCell id="NCpo27Vf3hIJw7Kv_T0o-42" style="edgeStyle=orthogonalEdgeStyle;rounded=0;orthogonalLoop=1;jettySize=auto;html=1;exitX=0.5;exitY=0;exitDx=0;exitDy=0;entryX=0.5;entryY=0;entryDx=0;entryDy=0;" edge="1" parent="1" source="nUtpPfne2L3b6XSr7Jf7-11" target="NCpo27Vf3hIJw7Kv_T0o-3">
          <mxGeometry relative="1" as="geometry">
            <Array as="points">
              <mxPoint x="-406" y="460" />
              <mxPoint x="-650" y="460" />
              <mxPoint x="-650" y="210" />
              <mxPoint x="-1170" y="210" />
            </Array>
          </mxGeometry>
        </mxCell>
        <mxCell id="nUtpPfne2L3b6XSr7Jf7-11" value="Process" style="html=1;whiteSpace=wrap;" vertex="1" parent="1">
          <mxGeometry x="-471" y="558.5" width="130" height="67.5" as="geometry" />
        </mxCell>
        <mxCell id="nUtpPfne2L3b6XSr7Jf7-12" style="edgeStyle=orthogonalEdgeStyle;rounded=0;orthogonalLoop=1;jettySize=auto;html=1;exitX=0.5;exitY=0;exitDx=0;exitDy=0;entryX=0.5;entryY=1;entryDx=0;entryDy=0;dashed=1;" edge="1" parent="1" source="nUtpPfne2L3b6XSr7Jf7-13" target="nUtpPfne2L3b6XSr7Jf7-5">
          <mxGeometry relative="1" as="geometry" />
        </mxCell>
        <mxCell id="NCpo27Vf3hIJw7Kv_T0o-31" style="edgeStyle=orthogonalEdgeStyle;rounded=0;orthogonalLoop=1;jettySize=auto;html=1;exitX=0.5;exitY=1;exitDx=0;exitDy=0;entryX=0.5;entryY=1;entryDx=0;entryDy=0;" edge="1" parent="1" source="nUtpPfne2L3b6XSr7Jf7-13" target="NCpo27Vf3hIJw7Kv_T0o-11">
          <mxGeometry relative="1" as="geometry" />
        </mxCell>
        <mxCell id="NCpo27Vf3hIJw7Kv_T0o-32" style="edgeStyle=orthogonalEdgeStyle;rounded=0;orthogonalLoop=1;jettySize=auto;html=1;exitX=0.5;exitY=1;exitDx=0;exitDy=0;entryX=0.5;entryY=1;entryDx=0;entryDy=0;" edge="1" parent="1" source="nUtpPfne2L3b6XSr7Jf7-13" target="NCpo27Vf3hIJw7Kv_T0o-10">
          <mxGeometry relative="1" as="geometry">
            <Array as="points">
              <mxPoint x="-233" y="750" />
              <mxPoint x="-995" y="750" />
            </Array>
          </mxGeometry>
        </mxCell>
        <mxCell id="nUtpPfne2L3b6XSr7Jf7-13" value="Process" style="html=1;whiteSpace=wrap;" vertex="1" parent="1">
          <mxGeometry x="-298" y="558.5" width="130" height="65" as="geometry" />
        </mxCell>
        <mxCell id="nUtpPfne2L3b6XSr7Jf7-14" style="edgeStyle=orthogonalEdgeStyle;rounded=0;orthogonalLoop=1;jettySize=auto;html=1;exitX=0.5;exitY=0;exitDx=0;exitDy=0;entryX=0.5;entryY=1;entryDx=0;entryDy=0;dashed=1;" edge="1" parent="1" source="nUtpPfne2L3b6XSr7Jf7-15" target="nUtpPfne2L3b6XSr7Jf7-6">
          <mxGeometry relative="1" as="geometry" />
        </mxCell>
        <mxCell id="NCpo27Vf3hIJw7Kv_T0o-38" style="edgeStyle=orthogonalEdgeStyle;rounded=0;orthogonalLoop=1;jettySize=auto;html=1;exitX=0.5;exitY=0;exitDx=0;exitDy=0;entryX=0.5;entryY=0;entryDx=0;entryDy=0;" edge="1" parent="1" source="nUtpPfne2L3b6XSr7Jf7-15" target="NCpo27Vf3hIJw7Kv_T0o-8">
          <mxGeometry relative="1" as="geometry" />
        </mxCell>
        <mxCell id="NCpo27Vf3hIJw7Kv_T0o-39" style="edgeStyle=orthogonalEdgeStyle;rounded=0;orthogonalLoop=1;jettySize=auto;html=1;exitX=0.5;exitY=0;exitDx=0;exitDy=0;entryX=0.5;entryY=0;entryDx=0;entryDy=0;" edge="1" parent="1" source="nUtpPfne2L3b6XSr7Jf7-15" target="NCpo27Vf3hIJw7Kv_T0o-6">
          <mxGeometry relative="1" as="geometry" />
        </mxCell>
        <mxCell id="nUtpPfne2L3b6XSr7Jf7-15" value="Process" style="html=1;whiteSpace=wrap;" vertex="1" parent="1">
          <mxGeometry x="-131" y="558.5" width="130" height="65" as="geometry" />
        </mxCell>
        <mxCell id="nUtpPfne2L3b6XSr7Jf7-16" style="edgeStyle=orthogonalEdgeStyle;rounded=0;orthogonalLoop=1;jettySize=auto;html=1;exitX=0.5;exitY=0;exitDx=0;exitDy=0;entryX=0.5;entryY=1;entryDx=0;entryDy=0;dashed=1;" edge="1" parent="1" source="nUtpPfne2L3b6XSr7Jf7-17" target="nUtpPfne2L3b6XSr7Jf7-8">
          <mxGeometry relative="1" as="geometry" />
        </mxCell>
        <mxCell id="NCpo27Vf3hIJw7Kv_T0o-35" style="edgeStyle=orthogonalEdgeStyle;rounded=0;orthogonalLoop=1;jettySize=auto;html=1;exitX=0.5;exitY=1;exitDx=0;exitDy=0;entryX=0.5;entryY=1;entryDx=0;entryDy=0;" edge="1" parent="1" source="nUtpPfne2L3b6XSr7Jf7-17" target="NCpo27Vf3hIJw7Kv_T0o-14">
          <mxGeometry relative="1" as="geometry">
            <Array as="points">
              <mxPoint x="104" y="710" />
              <mxPoint x="-650" y="710" />
              <mxPoint x="-650" y="970" />
              <mxPoint x="-830" y="970" />
            </Array>
          </mxGeometry>
        </mxCell>
        <mxCell id="NCpo27Vf3hIJw7Kv_T0o-36" style="edgeStyle=orthogonalEdgeStyle;rounded=0;orthogonalLoop=1;jettySize=auto;html=1;exitX=0.5;exitY=1;exitDx=0;exitDy=0;entryX=0.5;entryY=1;entryDx=0;entryDy=0;" edge="1" parent="1" source="nUtpPfne2L3b6XSr7Jf7-17" target="NCpo27Vf3hIJw7Kv_T0o-12">
          <mxGeometry relative="1" as="geometry">
            <Array as="points">
              <mxPoint x="104" y="710" />
              <mxPoint x="-650" y="710" />
              <mxPoint x="-650" y="970" />
              <mxPoint x="-1170" y="970" />
            </Array>
          </mxGeometry>
        </mxCell>
        <mxCell id="nUtpPfne2L3b6XSr7Jf7-17" value="Process" style="html=1;whiteSpace=wrap;" vertex="1" parent="1">
          <mxGeometry x="39" y="558.5" width="130" height="65" as="geometry" />
        </mxCell>
        <mxCell id="nUtpPfne2L3b6XSr7Jf7-18" value="Core" style="shape=umlFrame;whiteSpace=wrap;html=1;pointerEvents=0;" vertex="1" parent="1">
          <mxGeometry x="899" y="236" width="370" height="400" as="geometry" />
        </mxCell>
        <mxCell id="nUtpPfne2L3b6XSr7Jf7-19" value="Fetch Unit" style="html=1;whiteSpace=wrap;" vertex="1" parent="1">
          <mxGeometry x="949" y="276" width="110" height="110" as="geometry" />
        </mxCell>
        <mxCell id="NCpo27Vf3hIJw7Kv_T0o-2" value="" style="edgeStyle=orthogonalEdgeStyle;rounded=0;orthogonalLoop=1;jettySize=auto;html=1;entryX=0.002;entryY=0.362;entryDx=0;entryDy=0;entryPerimeter=0;strokeColor=#FF0000;" edge="1" parent="1" target="nUtpPfne2L3b6XSr7Jf7-36">
          <mxGeometry relative="1" as="geometry">
            <mxPoint x="280" y="367" as="sourcePoint" />
            <mxPoint x="739" y="490" as="targetPoint" />
          </mxGeometry>
        </mxCell>
        <mxCell id="XIu4hZ5gXHAq44YEaxx4-2" value="" style="edgeStyle=orthogonalEdgeStyle;rounded=0;orthogonalLoop=1;jettySize=auto;html=1;entryX=0.998;entryY=0.23;entryDx=0;entryDy=0;entryPerimeter=0;strokeColor=#FF0000;" edge="1" parent="1" target="nUtpPfne2L3b6XSr7Jf7-46">
          <mxGeometry relative="1" as="geometry">
            <mxPoint x="-562" y="366" as="sourcePoint" />
            <mxPoint x="-141" y="-275" as="targetPoint" />
            <Array as="points" />
          </mxGeometry>
        </mxCell>
        <mxCell id="nUtpPfne2L3b6XSr7Jf7-21" value="Kernel" style="shape=umlFrame;whiteSpace=wrap;html=1;pointerEvents=0;" vertex="1" parent="1">
          <mxGeometry x="-561" y="180" width="840" height="810" as="geometry" />
        </mxCell>
        <mxCell id="nUtpPfne2L3b6XSr7Jf7-22" value="" style="edgeStyle=orthogonalEdgeStyle;rounded=0;orthogonalLoop=1;jettySize=auto;html=1;entryX=0.719;entryY=1.01;entryDx=0;entryDy=0;entryPerimeter=0;" edge="1" parent="1" source="nUtpPfne2L3b6XSr7Jf7-24" target="nUtpPfne2L3b6XSr7Jf7-40">
          <mxGeometry relative="1" as="geometry">
            <mxPoint x="704" y="812" as="targetPoint" />
            <Array as="points">
              <mxPoint x="874" y="706" />
              <mxPoint x="745" y="706" />
            </Array>
          </mxGeometry>
        </mxCell>
        <mxCell id="NCpo27Vf3hIJw7Kv_T0o-44" value="" style="edgeStyle=orthogonalEdgeStyle;rounded=0;orthogonalLoop=1;jettySize=auto;html=1;entryX=1.001;entryY=0.908;entryDx=0;entryDy=0;entryPerimeter=0;" edge="1" parent="1" source="nUtpPfne2L3b6XSr7Jf7-24" target="nUtpPfne2L3b6XSr7Jf7-21">
          <mxGeometry relative="1" as="geometry">
            <mxPoint x="704" y="915" as="targetPoint" />
          </mxGeometry>
        </mxCell>
        <mxCell id="nUtpPfne2L3b6XSr7Jf7-24" value="Syscalls" style="shape=umlFrame;whiteSpace=wrap;html=1;pointerEvents=0;" vertex="1" parent="1">
          <mxGeometry x="809" y="840" width="130" height="150" as="geometry" />
        </mxCell>
        <mxCell id="nUtpPfne2L3b6XSr7Jf7-25" value="Yield" style="html=1;whiteSpace=wrap;" vertex="1" parent="1">
          <mxGeometry x="829" y="880.0000000000001" width="90" height="90" as="geometry" />
        </mxCell>
        <mxCell id="nUtpPfne2L3b6XSr7Jf7-30" value="Current Process" style="html=1;whiteSpace=wrap;" vertex="1" parent="1">
          <mxGeometry x="949" y="556" width="270" height="50" as="geometry" />
        </mxCell>
        <mxCell id="nUtpPfne2L3b6XSr7Jf7-31" style="edgeStyle=orthogonalEdgeStyle;rounded=0;orthogonalLoop=1;jettySize=auto;html=1;exitX=0.5;exitY=0;exitDx=0;exitDy=0;entryX=0.728;entryY=0.999;entryDx=0;entryDy=0;entryPerimeter=0;" edge="1" parent="1" source="nUtpPfne2L3b6XSr7Jf7-32" target="nUtpPfne2L3b6XSr7Jf7-18">
          <mxGeometry relative="1" as="geometry" />
        </mxCell>
        <mxCell id="nUtpPfne2L3b6XSr7Jf7-32" value="Tracer" style="html=1;whiteSpace=wrap;" vertex="1" parent="1">
          <mxGeometry x="1119" y="734.0000000000001" width="100" height="100" as="geometry" />
        </mxCell>
        <mxCell id="nUtpPfne2L3b6XSr7Jf7-33" value="Sehcduler" style="html=1;whiteSpace=wrap;" vertex="1" parent="1">
          <mxGeometry x="-512" y="790" width="171" height="170" as="geometry" />
        </mxCell>
        <mxCell id="nUtpPfne2L3b6XSr7Jf7-36" value="Core Cluster" style="shape=umlFrame;whiteSpace=wrap;html=1;pointerEvents=0;width=80;height=30;" vertex="1" parent="1">
          <mxGeometry x="419" y="186" width="910" height="500" as="geometry" />
        </mxCell>
        <mxCell id="nUtpPfne2L3b6XSr7Jf7-37" value="Register File" style="html=1;whiteSpace=wrap;" vertex="1" parent="1">
          <mxGeometry x="529" y="416" width="110" height="110" as="geometry" />
        </mxCell>
        <mxCell id="nUtpPfne2L3b6XSr7Jf7-38" value="ALU" style="html=1;whiteSpace=wrap;" vertex="1" parent="1">
          <mxGeometry x="689" y="416" width="110" height="110" as="geometry" />
        </mxCell>
        <mxCell id="nUtpPfne2L3b6XSr7Jf7-39" value="Decoder" style="html=1;whiteSpace=wrap;" vertex="1" parent="1">
          <mxGeometry x="689" y="276" width="110" height="110" as="geometry" />
        </mxCell>
        <mxCell id="nUtpPfne2L3b6XSr7Jf7-40" value="Core" style="shape=umlFrame;whiteSpace=wrap;html=1;pointerEvents=0;" vertex="1" parent="1">
          <mxGeometry x="479" y="236" width="370" height="400" as="geometry" />
        </mxCell>
        <mxCell id="nUtpPfne2L3b6XSr7Jf7-41" value="Fetch Unit" style="html=1;whiteSpace=wrap;" vertex="1" parent="1">
          <mxGeometry x="529" y="276" width="110" height="110" as="geometry" />
        </mxCell>
        <mxCell id="nUtpPfne2L3b6XSr7Jf7-42" value="Current Process" style="html=1;whiteSpace=wrap;" vertex="1" parent="1">
          <mxGeometry x="529" y="556" width="270" height="50" as="geometry" />
        </mxCell>
        <mxCell id="nUtpPfne2L3b6XSr7Jf7-43" value="" style="edgeStyle=orthogonalEdgeStyle;rounded=0;orthogonalLoop=1;jettySize=auto;html=1;" edge="1" parent="1" source="nUtpPfne2L3b6XSr7Jf7-44">
          <mxGeometry relative="1" as="geometry">
            <mxPoint x="599" y="636" as="targetPoint" />
          </mxGeometry>
        </mxCell>
        <mxCell id="nUtpPfne2L3b6XSr7Jf7-44" value="Tracer" style="html=1;whiteSpace=wrap;" vertex="1" parent="1">
          <mxGeometry x="549" y="737.0000000000001" width="100" height="100" as="geometry" />
        </mxCell>
        <mxCell id="nUtpPfne2L3b6XSr7Jf7-45" value="" style="edgeStyle=orthogonalEdgeStyle;rounded=0;orthogonalLoop=1;jettySize=auto;html=1;entryX=0.297;entryY=1.008;entryDx=0;entryDy=0;entryPerimeter=0;" edge="1" parent="1" target="nUtpPfne2L3b6XSr7Jf7-18">
          <mxGeometry relative="1" as="geometry">
            <mxPoint x="875" y="840" as="sourcePoint" />
            <mxPoint x="999" y="756" as="targetPoint" />
            <Array as="points">
              <mxPoint x="875" y="706" />
              <mxPoint x="1009" y="706" />
            </Array>
          </mxGeometry>
        </mxCell>
        <mxCell id="nUtpPfne2L3b6XSr7Jf7-46" value="Memory" style="shape=umlFrame;whiteSpace=wrap;html=1;pointerEvents=0;width=80;height=30;" vertex="1" parent="1">
          <mxGeometry x="-1270" y="180" width="540" height="810" as="geometry" />
        </mxCell>
        <mxCell id="NCpo27Vf3hIJw7Kv_T0o-3" value="Page" style="html=1;whiteSpace=wrap;" vertex="1" parent="1">
          <mxGeometry x="-1235" y="240" width="130" height="130" as="geometry" />
        </mxCell>
        <mxCell id="NCpo27Vf3hIJw7Kv_T0o-4" value="Page" style="html=1;whiteSpace=wrap;" vertex="1" parent="1">
          <mxGeometry x="-1060" y="236" width="130" height="130" as="geometry" />
        </mxCell>
        <mxCell id="NCpo27Vf3hIJw7Kv_T0o-5" value="Page" style="html=1;whiteSpace=wrap;" vertex="1" parent="1">
          <mxGeometry x="-895" y="240" width="130" height="130" as="geometry" />
        </mxCell>
        <mxCell id="NCpo27Vf3hIJw7Kv_T0o-6" value="Page" style="html=1;whiteSpace=wrap;" vertex="1" parent="1">
          <mxGeometry x="-1235" y="420" width="130" height="130" as="geometry" />
        </mxCell>
        <mxCell id="NCpo27Vf3hIJw7Kv_T0o-7" value="Page" style="html=1;whiteSpace=wrap;" vertex="1" parent="1">
          <mxGeometry x="-1060" y="416" width="130" height="130" as="geometry" />
        </mxCell>
        <mxCell id="NCpo27Vf3hIJw7Kv_T0o-8" value="Page" style="html=1;whiteSpace=wrap;" vertex="1" parent="1">
          <mxGeometry x="-895" y="420" width="130" height="130" as="geometry" />
        </mxCell>
        <mxCell id="NCpo27Vf3hIJw7Kv_T0o-9" value="Page" style="html=1;whiteSpace=wrap;" vertex="1" parent="1">
          <mxGeometry x="-1235" y="599" width="130" height="130" as="geometry" />
        </mxCell>
        <mxCell id="NCpo27Vf3hIJw7Kv_T0o-10" value="Page" style="html=1;whiteSpace=wrap;" vertex="1" parent="1">
          <mxGeometry x="-1060" y="595" width="130" height="130" as="geometry" />
        </mxCell>
        <mxCell id="NCpo27Vf3hIJw7Kv_T0o-11" value="Page" style="html=1;whiteSpace=wrap;" vertex="1" parent="1">
          <mxGeometry x="-895" y="599" width="130" height="130" as="geometry" />
        </mxCell>
        <mxCell id="NCpo27Vf3hIJw7Kv_T0o-12" value="Page" style="html=1;whiteSpace=wrap;" vertex="1" parent="1">
          <mxGeometry x="-1235" y="804" width="130" height="130" as="geometry" />
        </mxCell>
        <mxCell id="NCpo27Vf3hIJw7Kv_T0o-13" value="Page" style="html=1;whiteSpace=wrap;" vertex="1" parent="1">
          <mxGeometry x="-1060" y="800" width="130" height="130" as="geometry" />
        </mxCell>
        <mxCell id="NCpo27Vf3hIJw7Kv_T0o-14" value="Page" style="html=1;whiteSpace=wrap;" vertex="1" parent="1">
          <mxGeometry x="-895" y="804" width="130" height="130" as="geometry" />
        </mxCell>
        <mxCell id="3IN0j-ioYU7q4eD-haPO-1" value="State Saver" style="html=1;whiteSpace=wrap;" vertex="1" parent="1">
          <mxGeometry x="-318" y="790" width="170" height="170" as="geometry" />
        </mxCell>
        <mxCell id="3IN0j-ioYU7q4eD-haPO-2" value="State Loader" style="html=1;whiteSpace=wrap;" vertex="1" parent="1">
          <mxGeometry x="-131" y="790" width="170" height="170" as="geometry" />
        </mxCell>
        <mxCell id="3IN0j-ioYU7q4eD-haPO-3" value="Allocator" style="html=1;whiteSpace=wrap;" vertex="1" parent="1">
          <mxGeometry x="60" y="790" width="170" height="170" as="geometry" />
        </mxCell>
      </root>
    </mxGraphModel>
  </diagram>
  <diagram id="JBfIPUspaGbg7BmWoV8e" name="MC-MP-Disk">
    <mxGraphModel dx="5681" dy="1474" grid="1" gridSize="10" guides="1" tooltips="1" connect="1" arrows="1" fold="1" page="1" pageScale="1" pageWidth="827" pageHeight="1169" math="0" shadow="0">
      <root>
        <mxCell id="0" />
        <mxCell id="1" parent="0" />
        <mxCell id="WbrWKORxUcc5D5ju9m4t-1" value="State" style="html=1;whiteSpace=wrap;" vertex="1" parent="1">
          <mxGeometry x="-549" y="289" width="130" height="65" as="geometry" />
        </mxCell>
        <mxCell id="WbrWKORxUcc5D5ju9m4t-2" value="Register File" style="html=1;whiteSpace=wrap;" vertex="1" parent="1">
          <mxGeometry x="871" y="415" width="110" height="110" as="geometry" />
        </mxCell>
        <mxCell id="WbrWKORxUcc5D5ju9m4t-3" value="ALU" style="html=1;whiteSpace=wrap;" vertex="1" parent="1">
          <mxGeometry x="1031" y="415" width="110" height="110" as="geometry" />
        </mxCell>
        <mxCell id="WbrWKORxUcc5D5ju9m4t-4" value="Decoder" style="html=1;whiteSpace=wrap;" vertex="1" parent="1">
          <mxGeometry x="1031" y="275" width="110" height="110" as="geometry" />
        </mxCell>
        <mxCell id="WbrWKORxUcc5D5ju9m4t-5" value="State" style="html=1;whiteSpace=wrap;" vertex="1" parent="1">
          <mxGeometry x="-376" y="289" width="130" height="65" as="geometry" />
        </mxCell>
        <mxCell id="WbrWKORxUcc5D5ju9m4t-6" value="State" style="html=1;whiteSpace=wrap;" vertex="1" parent="1">
          <mxGeometry x="-209" y="289" width="130" height="65" as="geometry" />
        </mxCell>
        <mxCell id="WbrWKORxUcc5D5ju9m4t-7" value="CPU States" style="shape=umlFrame;whiteSpace=wrap;html=1;pointerEvents=0;width=90;height=30;" vertex="1" parent="1">
          <mxGeometry x="-579" y="239" width="720" height="140" as="geometry" />
        </mxCell>
        <mxCell id="WbrWKORxUcc5D5ju9m4t-8" value="State" style="html=1;whiteSpace=wrap;" vertex="1" parent="1">
          <mxGeometry x="-39" y="289" width="130" height="65" as="geometry" />
        </mxCell>
        <mxCell id="WbrWKORxUcc5D5ju9m4t-9" value="Processes" style="shape=umlFrame;whiteSpace=wrap;html=1;pointerEvents=0;width=90;height=30;" vertex="1" parent="1">
          <mxGeometry x="-579" y="505" width="720" height="150" as="geometry" />
        </mxCell>
        <mxCell id="WbrWKORxUcc5D5ju9m4t-10" style="edgeStyle=orthogonalEdgeStyle;rounded=0;orthogonalLoop=1;jettySize=auto;html=1;exitX=0.5;exitY=0;exitDx=0;exitDy=0;entryX=0.5;entryY=1;entryDx=0;entryDy=0;dashed=1;" edge="1" parent="1" source="WbrWKORxUcc5D5ju9m4t-14" target="WbrWKORxUcc5D5ju9m4t-1">
          <mxGeometry relative="1" as="geometry" />
        </mxCell>
        <mxCell id="WbrWKORxUcc5D5ju9m4t-11" style="edgeStyle=orthogonalEdgeStyle;rounded=0;orthogonalLoop=1;jettySize=auto;html=1;exitX=0.5;exitY=0;exitDx=0;exitDy=0;entryX=0.5;entryY=0;entryDx=0;entryDy=0;" edge="1" parent="1" source="WbrWKORxUcc5D5ju9m4t-14" target="WbrWKORxUcc5D5ju9m4t-54">
          <mxGeometry relative="1" as="geometry">
            <Array as="points">
              <mxPoint x="-484" y="459" />
              <mxPoint x="-728" y="459" />
              <mxPoint x="-728" y="209" />
              <mxPoint x="-908" y="209" />
            </Array>
          </mxGeometry>
        </mxCell>
        <mxCell id="WbrWKORxUcc5D5ju9m4t-12" style="edgeStyle=orthogonalEdgeStyle;rounded=0;orthogonalLoop=1;jettySize=auto;html=1;exitX=0.5;exitY=0;exitDx=0;exitDy=0;entryX=0.5;entryY=0;entryDx=0;entryDy=0;" edge="1" parent="1" source="WbrWKORxUcc5D5ju9m4t-14" target="WbrWKORxUcc5D5ju9m4t-53">
          <mxGeometry relative="1" as="geometry">
            <Array as="points">
              <mxPoint x="-484" y="459" />
              <mxPoint x="-728" y="459" />
              <mxPoint x="-728" y="209" />
              <mxPoint x="-1073" y="209" />
            </Array>
          </mxGeometry>
        </mxCell>
        <mxCell id="WbrWKORxUcc5D5ju9m4t-13" style="edgeStyle=orthogonalEdgeStyle;rounded=0;orthogonalLoop=1;jettySize=auto;html=1;exitX=0.5;exitY=0;exitDx=0;exitDy=0;entryX=0.5;entryY=0;entryDx=0;entryDy=0;" edge="1" parent="1" source="WbrWKORxUcc5D5ju9m4t-14" target="WbrWKORxUcc5D5ju9m4t-52">
          <mxGeometry relative="1" as="geometry">
            <Array as="points">
              <mxPoint x="-484" y="459" />
              <mxPoint x="-728" y="459" />
              <mxPoint x="-728" y="209" />
              <mxPoint x="-1248" y="209" />
            </Array>
          </mxGeometry>
        </mxCell>
        <mxCell id="WbrWKORxUcc5D5ju9m4t-14" value="Process" style="html=1;whiteSpace=wrap;" vertex="1" parent="1">
          <mxGeometry x="-549" y="557.5" width="130" height="67.5" as="geometry" />
        </mxCell>
        <mxCell id="WbrWKORxUcc5D5ju9m4t-15" style="edgeStyle=orthogonalEdgeStyle;rounded=0;orthogonalLoop=1;jettySize=auto;html=1;exitX=0.5;exitY=0;exitDx=0;exitDy=0;entryX=0.5;entryY=1;entryDx=0;entryDy=0;dashed=1;" edge="1" parent="1" source="WbrWKORxUcc5D5ju9m4t-18" target="WbrWKORxUcc5D5ju9m4t-5">
          <mxGeometry relative="1" as="geometry" />
        </mxCell>
        <mxCell id="WbrWKORxUcc5D5ju9m4t-16" style="edgeStyle=orthogonalEdgeStyle;rounded=0;orthogonalLoop=1;jettySize=auto;html=1;exitX=0.5;exitY=1;exitDx=0;exitDy=0;entryX=0.5;entryY=1;entryDx=0;entryDy=0;" edge="1" parent="1" source="WbrWKORxUcc5D5ju9m4t-18" target="WbrWKORxUcc5D5ju9m4t-60">
          <mxGeometry relative="1" as="geometry">
            <Array as="points">
              <mxPoint x="-311" y="770" />
              <mxPoint x="-908" y="770" />
            </Array>
          </mxGeometry>
        </mxCell>
        <mxCell id="WbrWKORxUcc5D5ju9m4t-17" style="edgeStyle=orthogonalEdgeStyle;rounded=0;orthogonalLoop=1;jettySize=auto;html=1;exitX=0.5;exitY=1;exitDx=0;exitDy=0;entryX=0.5;entryY=1;entryDx=0;entryDy=0;" edge="1" parent="1" source="WbrWKORxUcc5D5ju9m4t-18" target="WbrWKORxUcc5D5ju9m4t-59">
          <mxGeometry relative="1" as="geometry">
            <Array as="points">
              <mxPoint x="-311" y="770" />
              <mxPoint x="-1073" y="770" />
            </Array>
          </mxGeometry>
        </mxCell>
        <mxCell id="WbrWKORxUcc5D5ju9m4t-18" value="Process" style="html=1;whiteSpace=wrap;" vertex="1" parent="1">
          <mxGeometry x="-376" y="557.5" width="130" height="65" as="geometry" />
        </mxCell>
        <mxCell id="WbrWKORxUcc5D5ju9m4t-19" style="edgeStyle=orthogonalEdgeStyle;rounded=0;orthogonalLoop=1;jettySize=auto;html=1;exitX=0.5;exitY=0;exitDx=0;exitDy=0;entryX=0.5;entryY=1;entryDx=0;entryDy=0;dashed=1;" edge="1" parent="1" source="WbrWKORxUcc5D5ju9m4t-22" target="WbrWKORxUcc5D5ju9m4t-6">
          <mxGeometry relative="1" as="geometry" />
        </mxCell>
        <mxCell id="WbrWKORxUcc5D5ju9m4t-21" style="edgeStyle=orthogonalEdgeStyle;rounded=0;orthogonalLoop=1;jettySize=auto;html=1;exitX=0.5;exitY=0;exitDx=0;exitDy=0;entryX=0.5;entryY=0;entryDx=0;entryDy=0;" edge="1" parent="1" source="WbrWKORxUcc5D5ju9m4t-22" target="WbrWKORxUcc5D5ju9m4t-68">
          <mxGeometry relative="1" as="geometry">
            <Array as="points">
              <mxPoint x="-144" y="400" />
              <mxPoint x="-1638" y="400" />
            </Array>
          </mxGeometry>
        </mxCell>
        <mxCell id="9LglIWprxmkr9nNV8SAS-1" style="edgeStyle=orthogonalEdgeStyle;rounded=0;orthogonalLoop=1;jettySize=auto;html=1;exitX=0.5;exitY=0;exitDx=0;exitDy=0;entryX=0.5;entryY=0;entryDx=0;entryDy=0;" edge="1" parent="1" source="WbrWKORxUcc5D5ju9m4t-22" target="WbrWKORxUcc5D5ju9m4t-67">
          <mxGeometry relative="1" as="geometry">
            <Array as="points">
              <mxPoint x="-144" y="400" />
              <mxPoint x="-1440" y="400" />
              <mxPoint x="-1440" y="210" />
              <mxPoint x="-1638" y="210" />
            </Array>
          </mxGeometry>
        </mxCell>
        <mxCell id="WbrWKORxUcc5D5ju9m4t-22" value="Process" style="html=1;whiteSpace=wrap;" vertex="1" parent="1">
          <mxGeometry x="-209" y="557.5" width="130" height="65" as="geometry" />
        </mxCell>
        <mxCell id="WbrWKORxUcc5D5ju9m4t-23" style="edgeStyle=orthogonalEdgeStyle;rounded=0;orthogonalLoop=1;jettySize=auto;html=1;exitX=0.5;exitY=0;exitDx=0;exitDy=0;entryX=0.5;entryY=1;entryDx=0;entryDy=0;dashed=1;" edge="1" parent="1" source="WbrWKORxUcc5D5ju9m4t-26" target="WbrWKORxUcc5D5ju9m4t-8">
          <mxGeometry relative="1" as="geometry" />
        </mxCell>
        <mxCell id="WbrWKORxUcc5D5ju9m4t-24" style="edgeStyle=orthogonalEdgeStyle;rounded=0;orthogonalLoop=1;jettySize=auto;html=1;exitX=0.5;exitY=1;exitDx=0;exitDy=0;entryX=0.5;entryY=1;entryDx=0;entryDy=0;" edge="1" parent="1" source="WbrWKORxUcc5D5ju9m4t-26" target="WbrWKORxUcc5D5ju9m4t-66">
          <mxGeometry relative="1" as="geometry">
            <Array as="points">
              <mxPoint x="26" y="709" />
              <mxPoint x="-728" y="709" />
              <mxPoint x="-728" y="969" />
              <mxPoint x="-1450" y="969" />
              <mxPoint x="-1450" y="760" />
              <mxPoint x="-1638" y="760" />
            </Array>
          </mxGeometry>
        </mxCell>
        <mxCell id="WbrWKORxUcc5D5ju9m4t-25" style="edgeStyle=orthogonalEdgeStyle;rounded=0;orthogonalLoop=1;jettySize=auto;html=1;exitX=0.5;exitY=1;exitDx=0;exitDy=0;entryX=0.5;entryY=1;entryDx=0;entryDy=0;" edge="1" parent="1" source="WbrWKORxUcc5D5ju9m4t-26" target="WbrWKORxUcc5D5ju9m4t-65">
          <mxGeometry relative="1" as="geometry">
            <Array as="points">
              <mxPoint x="26" y="709" />
              <mxPoint x="-728" y="709" />
              <mxPoint x="-728" y="969" />
              <mxPoint x="-1638" y="969" />
            </Array>
          </mxGeometry>
        </mxCell>
        <mxCell id="WbrWKORxUcc5D5ju9m4t-26" value="Process" style="html=1;whiteSpace=wrap;" vertex="1" parent="1">
          <mxGeometry x="-39" y="557.5" width="130" height="65" as="geometry" />
        </mxCell>
        <mxCell id="WbrWKORxUcc5D5ju9m4t-27" value="Core" style="shape=umlFrame;whiteSpace=wrap;html=1;pointerEvents=0;" vertex="1" parent="1">
          <mxGeometry x="821" y="235" width="370" height="465" as="geometry" />
        </mxCell>
        <mxCell id="WbrWKORxUcc5D5ju9m4t-28" value="Fetch Unit" style="html=1;whiteSpace=wrap;" vertex="1" parent="1">
          <mxGeometry x="871" y="275" width="110" height="110" as="geometry" />
        </mxCell>
        <mxCell id="mqWDreOSZtj3iMNoJ05I-2" value="" style="edgeStyle=orthogonalEdgeStyle;rounded=0;orthogonalLoop=1;jettySize=auto;html=1;exitX=0.188;exitY=-0.002;exitDx=0;exitDy=0;exitPerimeter=0;entryX=0.822;entryY=-0.002;entryDx=0;entryDy=0;entryPerimeter=0;strokeColor=#FF0000;" edge="1" parent="1" source="WbrWKORxUcc5D5ju9m4t-30" target="WbrWKORxUcc5D5ju9m4t-51">
          <mxGeometry relative="1" as="geometry">
            <mxPoint x="-219" y="-276" as="targetPoint" />
            <Array as="points">
              <mxPoint x="-481" y="130" />
              <mxPoint x="-904" y="130" />
            </Array>
          </mxGeometry>
        </mxCell>
        <mxCell id="mqWDreOSZtj3iMNoJ05I-4" value="" style="edgeStyle=orthogonalEdgeStyle;rounded=0;orthogonalLoop=1;jettySize=auto;html=1;exitX=0.19;exitY=-0.002;exitDx=0;exitDy=0;exitPerimeter=0;entryX=0.846;entryY=0;entryDx=0;entryDy=0;entryPerimeter=0;strokeColor=#FF0000;" edge="1" parent="1" source="WbrWKORxUcc5D5ju9m4t-30" target="WbrWKORxUcc5D5ju9m4t-64">
          <mxGeometry relative="1" as="geometry">
            <mxPoint x="-219" y="-276" as="targetPoint" />
            <Array as="points">
              <mxPoint x="-479" y="130" />
              <mxPoint x="-1621" y="130" />
            </Array>
          </mxGeometry>
        </mxCell>
        <mxCell id="LbFhp4QfSxhdLdjbAI-r-4" value="" style="edgeStyle=orthogonalEdgeStyle;rounded=0;orthogonalLoop=1;jettySize=auto;html=1;entryX=-0.001;entryY=0.326;entryDx=0;entryDy=0;entryPerimeter=0;exitX=0.998;exitY=0.231;exitDx=0;exitDy=0;exitPerimeter=0;strokeColor=#FF0000;" edge="1" parent="1" source="WbrWKORxUcc5D5ju9m4t-30" target="WbrWKORxUcc5D5ju9m4t-41">
          <mxGeometry relative="1" as="geometry">
            <mxPoint x="661" y="584" as="targetPoint" />
          </mxGeometry>
        </mxCell>
        <mxCell id="WbrWKORxUcc5D5ju9m4t-30" value="Kernel" style="shape=umlFrame;whiteSpace=wrap;html=1;pointerEvents=0;" vertex="1" parent="1">
          <mxGeometry x="-639" y="179" width="840" height="810" as="geometry" />
        </mxCell>
        <mxCell id="LbFhp4QfSxhdLdjbAI-r-6" value="" style="edgeStyle=orthogonalEdgeStyle;rounded=0;orthogonalLoop=1;jettySize=auto;html=1;exitX=-0.015;exitY=0.449;exitDx=0;exitDy=0;exitPerimeter=0;entryX=1.001;entryY=0.935;entryDx=0;entryDy=0;entryPerimeter=0;" edge="1" parent="1" source="WbrWKORxUcc5D5ju9m4t-33" target="WbrWKORxUcc5D5ju9m4t-30">
          <mxGeometry relative="1" as="geometry">
            <mxPoint x="626" y="977.2" as="targetPoint" />
            <Array as="points" />
          </mxGeometry>
        </mxCell>
        <mxCell id="LbFhp4QfSxhdLdjbAI-r-8" value="" style="edgeStyle=orthogonalEdgeStyle;rounded=0;orthogonalLoop=1;jettySize=auto;html=1;entryX=0.713;entryY=1.006;entryDx=0;entryDy=0;entryPerimeter=0;" edge="1" parent="1" source="WbrWKORxUcc5D5ju9m4t-33" target="WbrWKORxUcc5D5ju9m4t-45">
          <mxGeometry relative="1" as="geometry">
            <mxPoint x="796" y="745.0000000000002" as="targetPoint" />
            <Array as="points">
              <mxPoint x="796" y="800" />
              <mxPoint x="665" y="800" />
            </Array>
          </mxGeometry>
        </mxCell>
        <mxCell id="WbrWKORxUcc5D5ju9m4t-33" value="Syscalls" style="shape=umlFrame;whiteSpace=wrap;html=1;pointerEvents=0;" vertex="1" parent="1">
          <mxGeometry x="731" y="870" width="130" height="150" as="geometry" />
        </mxCell>
        <mxCell id="WbrWKORxUcc5D5ju9m4t-34" value="Yield" style="html=1;whiteSpace=wrap;" vertex="1" parent="1">
          <mxGeometry x="751" y="910.0000000000001" width="90" height="90" as="geometry" />
        </mxCell>
        <mxCell id="WbrWKORxUcc5D5ju9m4t-35" value="Current Process" style="html=1;whiteSpace=wrap;" vertex="1" parent="1">
          <mxGeometry x="871" y="555" width="270" height="50" as="geometry" />
        </mxCell>
        <mxCell id="WbrWKORxUcc5D5ju9m4t-36" style="edgeStyle=orthogonalEdgeStyle;rounded=0;orthogonalLoop=1;jettySize=auto;html=1;exitX=0.5;exitY=0;exitDx=0;exitDy=0;entryX=0.728;entryY=0.999;entryDx=0;entryDy=0;entryPerimeter=0;" edge="1" parent="1" source="WbrWKORxUcc5D5ju9m4t-37">
          <mxGeometry relative="1" as="geometry">
            <mxPoint x="1090.3600000000006" y="697.8000000000002" as="targetPoint" />
          </mxGeometry>
        </mxCell>
        <mxCell id="WbrWKORxUcc5D5ju9m4t-37" value="Tracer" style="html=1;whiteSpace=wrap;" vertex="1" parent="1">
          <mxGeometry x="1041" y="796.2000000000002" width="100" height="100" as="geometry" />
        </mxCell>
        <mxCell id="WbrWKORxUcc5D5ju9m4t-41" value="Core Cluster" style="shape=umlFrame;whiteSpace=wrap;html=1;pointerEvents=0;width=80;height=30;" vertex="1" parent="1">
          <mxGeometry x="341" y="185" width="910" height="555" as="geometry" />
        </mxCell>
        <mxCell id="WbrWKORxUcc5D5ju9m4t-42" value="Register File" style="html=1;whiteSpace=wrap;" vertex="1" parent="1">
          <mxGeometry x="451" y="415" width="110" height="110" as="geometry" />
        </mxCell>
        <mxCell id="WbrWKORxUcc5D5ju9m4t-43" value="ALU" style="html=1;whiteSpace=wrap;" vertex="1" parent="1">
          <mxGeometry x="611" y="415" width="110" height="110" as="geometry" />
        </mxCell>
        <mxCell id="WbrWKORxUcc5D5ju9m4t-44" value="Decoder" style="html=1;whiteSpace=wrap;" vertex="1" parent="1">
          <mxGeometry x="611" y="275" width="110" height="110" as="geometry" />
        </mxCell>
        <mxCell id="WbrWKORxUcc5D5ju9m4t-45" value="Core" style="shape=umlFrame;whiteSpace=wrap;html=1;pointerEvents=0;" vertex="1" parent="1">
          <mxGeometry x="401" y="235" width="370" height="465" as="geometry" />
        </mxCell>
        <mxCell id="WbrWKORxUcc5D5ju9m4t-46" value="Fetch Unit" style="html=1;whiteSpace=wrap;" vertex="1" parent="1">
          <mxGeometry x="451" y="275" width="110" height="110" as="geometry" />
        </mxCell>
        <mxCell id="WbrWKORxUcc5D5ju9m4t-47" value="Current Process" style="html=1;whiteSpace=wrap;" vertex="1" parent="1">
          <mxGeometry x="451" y="555" width="270" height="50" as="geometry" />
        </mxCell>
        <mxCell id="WbrWKORxUcc5D5ju9m4t-48" value="" style="edgeStyle=orthogonalEdgeStyle;rounded=0;orthogonalLoop=1;jettySize=auto;html=1;" edge="1" parent="1" source="WbrWKORxUcc5D5ju9m4t-49">
          <mxGeometry relative="1" as="geometry">
            <mxPoint x="521" y="698.2" as="targetPoint" />
          </mxGeometry>
        </mxCell>
        <mxCell id="WbrWKORxUcc5D5ju9m4t-49" value="Tracer" style="html=1;whiteSpace=wrap;" vertex="1" parent="1">
          <mxGeometry x="471" y="799.2000000000002" width="100" height="100" as="geometry" />
        </mxCell>
        <mxCell id="WbrWKORxUcc5D5ju9m4t-51" value="Memory" style="shape=umlFrame;whiteSpace=wrap;html=1;pointerEvents=0;width=80;height=30;" vertex="1" parent="1">
          <mxGeometry x="-1348" y="179" width="540" height="810" as="geometry" />
        </mxCell>
        <mxCell id="WbrWKORxUcc5D5ju9m4t-52" value="Page" style="html=1;whiteSpace=wrap;" vertex="1" parent="1">
          <mxGeometry x="-1313" y="239" width="130" height="130" as="geometry" />
        </mxCell>
        <mxCell id="WbrWKORxUcc5D5ju9m4t-53" value="Page" style="html=1;whiteSpace=wrap;" vertex="1" parent="1">
          <mxGeometry x="-1138" y="235" width="130" height="130" as="geometry" />
        </mxCell>
        <mxCell id="WbrWKORxUcc5D5ju9m4t-54" value="Page" style="html=1;whiteSpace=wrap;" vertex="1" parent="1">
          <mxGeometry x="-973" y="239" width="130" height="130" as="geometry" />
        </mxCell>
        <mxCell id="WbrWKORxUcc5D5ju9m4t-55" value="Page" style="html=1;whiteSpace=wrap;" vertex="1" parent="1">
          <mxGeometry x="-1313" y="419" width="130" height="130" as="geometry" />
        </mxCell>
        <mxCell id="WbrWKORxUcc5D5ju9m4t-56" value="Page" style="html=1;whiteSpace=wrap;" vertex="1" parent="1">
          <mxGeometry x="-1138" y="415" width="130" height="130" as="geometry" />
        </mxCell>
        <mxCell id="WbrWKORxUcc5D5ju9m4t-57" value="Page" style="html=1;whiteSpace=wrap;" vertex="1" parent="1">
          <mxGeometry x="-973" y="419" width="130" height="130" as="geometry" />
        </mxCell>
        <mxCell id="WbrWKORxUcc5D5ju9m4t-58" value="Page" style="html=1;whiteSpace=wrap;" vertex="1" parent="1">
          <mxGeometry x="-1313" y="609" width="130" height="130" as="geometry" />
        </mxCell>
        <mxCell id="WbrWKORxUcc5D5ju9m4t-59" value="Page" style="html=1;whiteSpace=wrap;" vertex="1" parent="1">
          <mxGeometry x="-1138" y="605" width="130" height="130" as="geometry" />
        </mxCell>
        <mxCell id="WbrWKORxUcc5D5ju9m4t-60" value="Page" style="html=1;whiteSpace=wrap;" vertex="1" parent="1">
          <mxGeometry x="-973" y="609" width="130" height="130" as="geometry" />
        </mxCell>
        <mxCell id="WbrWKORxUcc5D5ju9m4t-61" value="Page" style="html=1;whiteSpace=wrap;" vertex="1" parent="1">
          <mxGeometry x="-1313" y="803" width="130" height="130" as="geometry" />
        </mxCell>
        <mxCell id="WbrWKORxUcc5D5ju9m4t-62" value="Page" style="html=1;whiteSpace=wrap;" vertex="1" parent="1">
          <mxGeometry x="-1138" y="799" width="130" height="130" as="geometry" />
        </mxCell>
        <mxCell id="WbrWKORxUcc5D5ju9m4t-63" value="Page" style="html=1;whiteSpace=wrap;" vertex="1" parent="1">
          <mxGeometry x="-973" y="803" width="130" height="130" as="geometry" />
        </mxCell>
        <mxCell id="WbrWKORxUcc5D5ju9m4t-64" value="Disk" style="shape=umlFrame;whiteSpace=wrap;html=1;pointerEvents=0;width=80;height=30;" vertex="1" parent="1">
          <mxGeometry x="-2078" y="179" width="540" height="810" as="geometry" />
        </mxCell>
        <mxCell id="WbrWKORxUcc5D5ju9m4t-65" value="Page" style="html=1;whiteSpace=wrap;" vertex="1" parent="1">
          <mxGeometry x="-1703" y="803" width="130" height="130" as="geometry" />
        </mxCell>
        <mxCell id="WbrWKORxUcc5D5ju9m4t-66" value="Page" style="html=1;whiteSpace=wrap;" vertex="1" parent="1">
          <mxGeometry x="-1703" y="609" width="130" height="130" as="geometry" />
        </mxCell>
        <mxCell id="WbrWKORxUcc5D5ju9m4t-67" value="Page" style="html=1;whiteSpace=wrap;" vertex="1" parent="1">
          <mxGeometry x="-1703" y="239" width="130" height="130" as="geometry" />
        </mxCell>
        <mxCell id="WbrWKORxUcc5D5ju9m4t-68" value="Page" style="html=1;whiteSpace=wrap;" vertex="1" parent="1">
          <mxGeometry x="-1703" y="425" width="130" height="130" as="geometry" />
        </mxCell>
        <mxCell id="bCAYeTwR1yWH2eTNwzlY-1" value="Sehcduler" style="html=1;whiteSpace=wrap;" vertex="1" parent="1">
          <mxGeometry x="-569" y="799" width="150" height="150" as="geometry" />
        </mxCell>
        <mxCell id="bCAYeTwR1yWH2eTNwzlY-2" value="State Saver" style="html=1;whiteSpace=wrap;" vertex="1" parent="1">
          <mxGeometry x="-389" y="799" width="156" height="150" as="geometry" />
        </mxCell>
        <mxCell id="bCAYeTwR1yWH2eTNwzlY-3" value="State Loader" style="html=1;whiteSpace=wrap;" vertex="1" parent="1">
          <mxGeometry x="-198" y="800" width="159" height="150" as="geometry" />
        </mxCell>
        <mxCell id="bCAYeTwR1yWH2eTNwzlY-4" value="Allocator&lt;br&gt;&amp;amp;&lt;br&gt;Page Swapper" style="html=1;whiteSpace=wrap;" vertex="1" parent="1">
          <mxGeometry x="-10" y="800" width="150" height="150" as="geometry" />
        </mxCell>
        <mxCell id="LbFhp4QfSxhdLdjbAI-r-1" value="Timer Slicer &amp;amp; I/O" style="html=1;whiteSpace=wrap;" vertex="1" parent="1">
          <mxGeometry x="451" y="625" width="270" height="50" as="geometry" />
        </mxCell>
        <mxCell id="LbFhp4QfSxhdLdjbAI-r-2" value="Timer Slicer &amp;amp; I/O" style="html=1;whiteSpace=wrap;" vertex="1" parent="1">
          <mxGeometry x="871" y="625" width="270" height="50" as="geometry" />
        </mxCell>
        <mxCell id="LbFhp4QfSxhdLdjbAI-r-9" value="" style="edgeStyle=orthogonalEdgeStyle;rounded=0;orthogonalLoop=1;jettySize=auto;html=1;exitX=0.5;exitY=-0.008;exitDx=0;exitDy=0;exitPerimeter=0;" edge="1" parent="1" source="WbrWKORxUcc5D5ju9m4t-33">
          <mxGeometry relative="1" as="geometry">
            <mxPoint x="806" y="880" as="sourcePoint" />
            <mxPoint x="909" y="700" as="targetPoint" />
            <Array as="points">
              <mxPoint x="796" y="800" />
              <mxPoint x="909" y="800" />
            </Array>
          </mxGeometry>
        </mxCell>
      </root>
    </mxGraphModel>
  </diagram>
</mxfile>
